<?xml version="1.0" encoding="UTF-8"?>
<svg id="Layer_2" data-name="Layer 2" xmlns="http://www.w3.org/2000/svg" viewBox="0 0 1823.42 399.02">
  <defs>
    <style>
      .cls-1 {
        fill: #fff;
      }
    </style>
  </defs>
  <g id="Layer_2-2" data-name="Layer 2">
    <g>
      <path class="cls-1" d="M.95,315.4h5.43l27.22,51.54,27.03-51.54h5.33v65.38h-3.65l-.09-59.96-27.87,52.85h-1.68l-27.97-52.85v59.96H.95v-65.38Z"/>
      <path class="cls-1" d="M118.24,380.78l-.09-9.63c-2,3.31-4.66,5.75-8,7.34-3.34,1.59-7.16,2.39-11.46,2.39-3.18,0-5.99-.62-8.42-1.87s-4.32-2.95-5.66-5.1c-1.34-2.15-2.01-4.6-2.01-7.34,0-4.05,1.62-7.25,4.86-9.59s7.67-3.51,13.28-3.51h17.3v-4.77c-.06-4.18-1.31-7.42-3.74-9.73s-6.05-3.46-10.85-3.46c-2.93,0-5.71.55-8.33,1.64-2.62,1.09-5.3,2.67-8.04,4.72l-1.87-2.99c3.18-2.31,6.23-4.04,9.17-5.19,2.93-1.15,6.14-1.73,9.63-1.73,5.67,0,10.06,1.47,13.14,4.4,3.09,2.93,4.66,6.95,4.72,12.07l.19,32.36h-3.83.01ZM111.13,374.23c3.24-2.06,5.58-5.17,7.02-9.35v-7.95h-17.02c-4.8,0-8.47.81-10.99,2.43-2.53,1.62-3.79,3.99-3.79,7.11s1.17,5.86,3.51,7.86c2.34,2,5.47,2.99,9.4,2.99,4.68,0,8.64-1.03,11.88-3.09h0Z"/>
      <path class="cls-1" d="M150.84,335.27c3.09-2.09,6.81-3.19,11.18-3.32v4.02c-5.3,0-9.54,1.64-12.72,4.91-3.18,3.27-4.99,7.78-5.43,13.52v26.38h-3.93v-48.73h3.93v12.25c1.56-3.93,3.88-6.94,6.97-9.03h0Z"/>
      <path class="cls-1" d="M208.6,380.78l-19.18-27.03-12.35,12.72v14.31h-3.93v-69.4h3.93v49.48l28.81-28.81h4.77l-18.43,18.89,20.86,29.84h-4.49.01Z"/>
      <path class="cls-1" d="M252.98,335.18c3.46,2.15,6.08,5.16,7.86,9.03s2.63,8.29,2.57,13.28h-42.56c.19,3.93,1.15,7.39,2.9,10.38s4.12,5.32,7.11,6.97,6.36,2.48,10.1,2.48c3.3,0,6.38-.58,9.21-1.73,2.84-1.15,5.25-2.82,7.25-5l2.25,2.53c-2.31,2.49-5.08,4.41-8.33,5.75-3.24,1.34-6.77,2.01-10.57,2.01-4.55,0-8.64-1.04-12.25-3.13-3.62-2.09-6.44-4.99-8.47-8.7-2.03-3.71-3.04-7.9-3.04-12.58s1.03-8.89,3.09-12.63,4.88-6.66,8.46-8.75c3.59-2.09,7.65-3.13,12.21-3.13s8.75,1.08,12.21,3.23h0ZM259.86,354.03c-.37-5.61-2.28-10.1-5.71-13.47-3.43-3.37-7.89-5.05-13.38-5.05s-10.04,1.7-13.66,5.1c-3.62,3.4-5.67,7.87-6.17,13.42h38.92Z"/>
      <path class="cls-1" d="M300.26,377.41c-3.43,2.31-6.89,3.46-10.38,3.46s-6.17-1.14-8.04-3.41c-1.87-2.28-2.81-5.66-2.81-10.15v-30.68h-7.11v-3.37h7.11v-12.07h3.74v12.07h16.56v3.37h-16.56v30.21c0,6.8,2.53,10.2,7.58,10.2,2.87,0,5.67-.94,8.42-2.81l1.5,3.18h0Z"/>
      <path class="cls-1" d="M316.4,315.63c.65.65.98,1.45.98,2.39,0,1-.33,1.82-.98,2.48-.65.65-1.42.98-2.29.98s-1.64-.33-2.29-.98c-.65-.65-.98-1.48-.98-2.48,0-.94.33-1.73.98-2.39s1.42-.98,2.29-.98,1.64.33,2.29.98ZM312.14,332.04h3.83v48.73h-3.83v-48.73Z"/>
      <path class="cls-1" d="M373.27,337.05c3.34,3.4,5,8.06,5,13.98v29.75h-3.93v-29c0-4.99-1.4-8.89-4.21-11.69s-6.7-4.21-11.69-4.21c-5.55.13-9.99,1.82-13.33,5.1-3.34,3.27-5.22,7.75-5.66,13.42v26.38h-3.93v-48.73h3.93v12.44c1.62-3.99,4.13-7.05,7.53-9.17,3.4-2.12,7.53-3.24,12.39-3.37,5.92,0,10.55,1.7,13.89,5.1h0Z"/>
      <path class="cls-1" d="M437.11,332.04v43.4c0,4.74-.97,8.89-2.9,12.44s-4.68,6.3-8.23,8.23c-3.55,1.93-7.7,2.9-12.44,2.9-3.8,0-7.31-.67-10.52-2.01s-6.28-3.32-9.21-5.94l2.06-2.9c2.62,2.37,5.35,4.16,8.18,5.38,2.84,1.22,5.97,1.82,9.4,1.82,6.05,0,10.88-1.79,14.5-5.38s5.43-8.4,5.43-14.45v-9.26c-1.68,3.93-4.27,7-7.76,9.21-3.49,2.21-7.55,3.32-12.16,3.32-4.3,0-8.17-1-11.6-2.99-3.43-2-6.11-4.77-8.04-8.32-1.93-3.55-2.9-7.58-2.9-12.07s.97-8.51,2.9-12.07c1.93-3.55,4.6-6.34,8-8.37s7.25-3.04,11.55-3.04c4.61,0,8.67,1.12,12.16,3.37,3.49,2.24,6.11,5.33,7.86,9.26v-12.53h3.74-.02ZM423.87,372.87c2.96-1.71,5.28-4.08,6.97-7.11,1.68-3.02,2.53-6.44,2.53-10.24s-.84-7.23-2.53-10.29c-1.68-3.05-4.01-5.44-6.97-7.16-2.96-1.71-6.28-2.57-9.96-2.57s-7,.86-9.96,2.57c-2.96,1.72-5.27,4.1-6.92,7.16-1.65,3.06-2.48,6.49-2.48,10.29s.83,7.22,2.48,10.24c1.65,3.03,3.94,5.39,6.88,7.11,2.93,1.72,6.27,2.57,10.01,2.57s7-.86,9.96-2.57h-.01Z"/>
      <path class="cls-1" d="M481.53,303.98h3.27v88.58h-3.27v-88.58h0Z"/>
      <path class="cls-1" d="M574.93,319.74c5.14,2.9,9.21,6.86,12.21,11.88,2.99,5.02,4.49,10.52,4.49,16.51s-1.5,11.4-4.49,16.42c-2.99,5.02-7.08,8.98-12.25,11.88-5.18,2.9-10.82,4.35-16.93,4.35h-25.91v-65.38h26c6.11,0,11.74,1.45,16.88,4.35h0ZM572.87,373.06c4.52-2.59,8.11-6.08,10.76-10.48,2.65-4.4,3.98-9.21,3.98-14.45s-1.33-10.15-3.98-14.54c-2.65-4.4-6.24-7.89-10.76-10.48s-9.49-3.88-14.92-3.88h-21.98v57.71h22.08c5.36,0,10.3-1.29,14.83-3.88h-.01Z"/>
      <path class="cls-1" d="M636.38,335.18c3.46,2.15,6.08,5.16,7.86,9.03,1.78,3.87,2.63,8.29,2.57,13.28h-42.56c.19,3.93,1.15,7.39,2.9,10.38s4.12,5.32,7.11,6.97,6.36,2.48,10.1,2.48c3.3,0,6.38-.58,9.21-1.73,2.84-1.15,5.25-2.82,7.25-5l2.25,2.53c-2.31,2.49-5.08,4.41-8.33,5.75-3.24,1.34-6.77,2.01-10.57,2.01-4.55,0-8.64-1.04-12.25-3.13-3.62-2.09-6.44-4.99-8.47-8.7-2.03-3.71-3.04-7.9-3.04-12.58s1.03-8.89,3.09-12.63,4.88-6.66,8.46-8.75c3.59-2.09,7.65-3.13,12.21-3.13s8.75,1.08,12.21,3.23h0ZM643.26,354.03c-.37-5.61-2.28-10.1-5.71-13.47s-7.89-5.05-13.38-5.05-10.04,1.7-13.66,5.1-5.67,7.87-6.17,13.42h38.92Z"/>
      <path class="cls-1" d="M672.16,335.51c-3.62,0-6.55.7-8.79,2.1-2.25,1.4-3.37,3.51-3.37,6.31,0,1.87.56,3.43,1.68,4.68s2.53,2.21,4.21,2.9,3.96,1.47,6.83,2.34c3.43,1.06,6.17,2.06,8.23,2.99,2.06.94,3.82,2.28,5.28,4.02,1.46,1.75,2.2,4.05,2.2,6.92,0,4.3-1.62,7.56-4.86,9.77s-7.27,3.32-12.07,3.32c-3.43,0-6.7-.59-9.82-1.78-3.12-1.18-5.8-2.84-8.04-4.96l1.78-2.99c2.12,2,4.6,3.52,7.44,4.58s5.78,1.59,8.84,1.59c3.74,0,6.84-.78,9.31-2.34,2.46-1.56,3.69-3.83,3.69-6.83,0-2-.58-3.63-1.73-4.91-1.15-1.28-2.6-2.29-4.35-3.04s-4.08-1.56-7.02-2.43c-3.37-1.06-6.05-2.04-8.04-2.95-2-.9-3.71-2.21-5.14-3.93-1.44-1.71-2.15-3.94-2.15-6.69,0-4.05,1.51-7.11,4.54-9.17,3.02-2.06,6.84-3.09,11.46-3.09,5.11,0,9.76,1.28,13.94,3.83l-1.68,3.18c-3.62-2.31-7.73-3.46-12.35-3.46l-.02.04Z"/>
      <path class="cls-1" d="M705.88,315.63c.65.65.98,1.45.98,2.39,0,1-.33,1.82-.98,2.48-.65.65-1.42.98-2.29.98s-1.64-.33-2.29-.98c-.65-.65-.98-1.48-.98-2.48,0-.94.33-1.73.98-2.39s1.42-.98,2.29-.98,1.64.33,2.29.98ZM701.62,332.04h3.83v48.73h-3.83v-48.73Z"/>
      <path class="cls-1" d="M765.98,332.04v43.4c0,4.74-.97,8.89-2.9,12.44-1.93,3.55-4.68,6.3-8.23,8.23-3.55,1.93-7.7,2.9-12.44,2.9-3.8,0-7.31-.67-10.52-2.01s-6.28-3.32-9.21-5.94l2.06-2.9c2.62,2.37,5.35,4.16,8.18,5.38,2.84,1.22,5.97,1.82,9.4,1.82,6.05,0,10.88-1.79,14.5-5.38s5.43-8.4,5.43-14.45v-9.26c-1.68,3.93-4.27,7-7.76,9.21s-7.55,3.32-12.16,3.32c-4.3,0-8.17-1-11.6-2.99-3.43-2-6.11-4.77-8.04-8.32-1.93-3.55-2.9-7.58-2.9-12.07s.97-8.51,2.9-12.07c1.93-3.55,4.6-6.34,8-8.37s7.25-3.04,11.55-3.04c4.61,0,8.67,1.12,12.16,3.37,3.49,2.24,6.11,5.33,7.86,9.26v-12.53h3.74-.02ZM752.74,372.87c2.96-1.71,5.28-4.08,6.97-7.11,1.68-3.02,2.53-6.44,2.53-10.24s-.84-7.23-2.53-10.29c-1.68-3.05-4.01-5.44-6.97-7.16-2.96-1.71-6.28-2.57-9.96-2.57s-7,.86-9.96,2.57c-2.96,1.72-5.27,4.1-6.92,7.16-1.65,3.06-2.48,6.49-2.48,10.29s.83,7.22,2.48,10.24c1.65,3.03,3.94,5.39,6.88,7.11,2.93,1.72,6.27,2.57,10.01,2.57s7-.86,9.96-2.57h-.01Z"/>
      <path class="cls-1" d="M821.87,337.05c3.34,3.4,5,8.06,5,13.98v29.75h-3.93v-29c0-4.99-1.4-8.89-4.21-11.69s-6.7-4.21-11.69-4.21c-5.55.13-9.99,1.82-13.33,5.1-3.34,3.27-5.22,7.75-5.66,13.42v26.38h-3.93v-48.73h3.93v12.44c1.62-3.99,4.13-7.05,7.53-9.17,3.4-2.12,7.53-3.24,12.39-3.37,5.92,0,10.55,1.7,13.89,5.1h0Z"/>
      <path class="cls-1" d="M871.02,303.98h3.27v88.58h-3.27v-88.58h0Z"/>
      <path class="cls-1" d="M963.15,321.01c4.36,3.74,6.55,9.04,6.55,15.9s-2.18,12.49-6.55,16.32c-4.37,3.83-10.57,5.75-18.61,5.75h-19.08v21.79h-3.93v-65.38h23.01c8.04,0,14.25,1.87,18.61,5.61h0ZM960.34,350.42c3.74-3.15,5.61-7.62,5.61-13.42s-1.87-10.13-5.61-13.19c-3.74-3.05-9.04-4.58-15.9-4.58h-18.99v35.92h18.99c6.86,0,12.16-1.57,15.9-4.72h0Z"/>
      <path class="cls-1" d="M1020.44,337.05c3.33,3.4,5,8.06,5,13.98v29.75h-3.93v-29c0-4.99-1.4-8.89-4.21-11.69-2.81-2.81-6.7-4.21-11.69-4.21-5.99.13-10.66,2.06-14.03,5.8-3.37,3.74-5.05,8.82-5.05,15.25v23.85h-3.93v-69.4h3.93v33.39c1.62-4.12,4.13-7.25,7.53-9.4s7.56-3.29,12.49-3.41c5.92,0,10.55,1.7,13.89,5.1h0Z"/>
      <path class="cls-1" d="M1074.5,335.08c3.65,2.09,6.5,4.99,8.56,8.7,2.06,3.71,3.09,7.9,3.09,12.58s-1.03,8.96-3.09,12.67c-2.06,3.71-4.91,6.61-8.56,8.7-3.65,2.09-7.78,3.13-12.39,3.13s-8.65-1.04-12.3-3.13-6.52-4.99-8.61-8.7c-2.09-3.71-3.13-7.93-3.13-12.67s1.04-8.87,3.13-12.58,4.96-6.61,8.61-8.7c3.65-2.09,7.75-3.13,12.3-3.13s8.75,1.04,12.39,3.13ZM1051.73,338.31c-3.06,1.75-5.46,4.19-7.2,7.34-1.75,3.15-2.62,6.72-2.62,10.71s.87,7.67,2.62,10.85c1.74,3.18,4.15,5.64,7.2,7.39,3.05,1.75,6.52,2.62,10.38,2.62s7.34-.87,10.43-2.62c3.09-1.75,5.49-4.21,7.2-7.39,1.71-3.18,2.57-6.8,2.57-10.85s-.86-7.56-2.57-10.71c-1.72-3.15-4.12-5.6-7.2-7.34-3.09-1.75-6.56-2.62-10.43-2.62s-7.33.87-10.38,2.62Z"/>
      <path class="cls-1" d="M1123.28,377.41c-3.43,2.31-6.89,3.46-10.38,3.46s-6.17-1.14-8.04-3.41c-1.87-2.28-2.81-5.66-2.81-10.15v-30.68h-7.11v-3.37h7.11v-12.07h3.74v12.07h16.56v3.37h-16.56v30.21c0,6.8,2.53,10.2,7.58,10.2,2.87,0,5.67-.94,8.42-2.81l1.5,3.18h0Z"/>
      <path class="cls-1" d="M1165.52,335.08c3.65,2.09,6.5,4.99,8.56,8.7,2.06,3.71,3.09,7.9,3.09,12.58s-1.03,8.96-3.09,12.67c-2.06,3.71-4.91,6.61-8.56,8.7-3.65,2.09-7.78,3.13-12.39,3.13s-8.65-1.04-12.3-3.13-6.52-4.99-8.61-8.7c-2.09-3.71-3.13-7.93-3.13-12.67s1.04-8.87,3.13-12.58,4.96-6.61,8.61-8.7c3.65-2.09,7.75-3.13,12.3-3.13s8.75,1.04,12.39,3.13ZM1142.74,338.31c-3.06,1.75-5.46,4.19-7.2,7.34-1.75,3.15-2.62,6.72-2.62,10.71s.87,7.67,2.62,10.85c1.74,3.18,4.15,5.64,7.2,7.39,3.05,1.75,6.52,2.62,10.38,2.62s7.34-.87,10.43-2.62c3.09-1.75,5.49-4.21,7.2-7.39,1.71-3.18,2.57-6.8,2.57-10.85s-.86-7.56-2.57-10.71c-1.72-3.15-4.12-5.6-7.2-7.34-3.09-1.75-6.56-2.62-10.43-2.62s-7.33.87-10.38,2.62Z"/>
      <path class="cls-1" d="M1232.35,332.04v43.4c0,4.74-.97,8.89-2.9,12.44s-4.68,6.3-8.23,8.23c-3.55,1.93-7.7,2.9-12.44,2.9-3.8,0-7.31-.67-10.52-2.01s-6.28-3.32-9.21-5.94l2.06-2.9c2.62,2.37,5.35,4.16,8.18,5.38,2.84,1.22,5.97,1.82,9.4,1.82,6.05,0,10.88-1.79,14.5-5.38s5.43-8.4,5.43-14.45v-9.26c-1.68,3.93-4.27,7-7.76,9.21s-7.55,3.32-12.16,3.32c-4.3,0-8.17-1-11.6-2.99-3.43-2-6.11-4.77-8.04-8.32-1.93-3.55-2.9-7.58-2.9-12.07s.97-8.51,2.9-12.07c1.93-3.55,4.6-6.34,8-8.37s7.25-3.04,11.55-3.04c4.61,0,8.67,1.12,12.16,3.37,3.49,2.24,6.11,5.33,7.86,9.26v-12.53h3.74-.02ZM1219.11,372.87c2.96-1.71,5.29-4.08,6.97-7.11,1.68-3.02,2.53-6.44,2.53-10.24s-.84-7.23-2.53-10.29c-1.68-3.05-4.01-5.44-6.97-7.16-2.96-1.71-6.28-2.57-9.96-2.57s-7,.86-9.96,2.57c-2.96,1.72-5.27,4.1-6.92,7.16s-2.48,6.49-2.48,10.29.83,7.22,2.48,10.24c1.65,3.03,3.94,5.39,6.88,7.11,2.93,1.72,6.27,2.57,10.01,2.57s7-.86,9.96-2.57h-.01Z"/>
      <path class="cls-1" d="M1261.39,335.27c3.09-2.09,6.81-3.19,11.18-3.32v4.02c-5.3,0-9.54,1.64-12.72,4.91-3.18,3.27-4.99,7.78-5.43,13.52v26.38h-3.93v-48.73h3.93v12.25c1.56-3.93,3.88-6.94,6.97-9.03h0Z"/>
      <path class="cls-1" d="M1311.94,380.78l-.09-9.63c-2,3.31-4.66,5.75-8,7.34s-7.16,2.39-11.46,2.39c-3.18,0-5.99-.62-8.42-1.87s-4.32-2.95-5.66-5.1c-1.34-2.15-2.01-4.6-2.01-7.34,0-4.05,1.62-7.25,4.86-9.59s7.67-3.51,13.28-3.51h17.3v-4.77c-.06-4.18-1.31-7.42-3.74-9.73-2.43-2.31-6.05-3.46-10.85-3.46-2.93,0-5.71.55-8.33,1.64-2.62,1.09-5.3,2.67-8.04,4.72l-1.87-2.99c3.18-2.31,6.24-4.04,9.17-5.19s6.14-1.73,9.63-1.73c5.67,0,10.05,1.47,13.14,4.4s4.66,6.95,4.72,12.07l.19,32.36h-3.84.02ZM1304.84,374.23c3.24-2.06,5.58-5.17,7.02-9.35v-7.95h-17.02c-4.8,0-8.46.81-10.99,2.43s-3.79,3.99-3.79,7.11,1.17,5.86,3.51,7.86,5.47,2.99,9.4,2.99c4.68,0,8.64-1.03,11.88-3.09h-.01Z"/>
      <path class="cls-1" d="M1370.83,335.08c3.58,2.09,6.38,4.99,8.37,8.7,2,3.71,2.99,7.94,2.99,12.67s-1,8.87-2.99,12.58c-2,3.71-4.77,6.61-8.32,8.7-3.55,2.09-7.61,3.13-12.16,3.13s-8.9-1.14-12.49-3.41c-3.59-2.28-6.31-5.41-8.18-9.4v30.87h-3.93v-66.88h3.93v12.81c1.87-4.05,4.6-7.22,8.18-9.49,3.58-2.28,7.75-3.41,12.49-3.41,4.49,0,8.53,1.04,12.11,3.13h0ZM1368.58,374.56c3.09-1.78,5.49-4.24,7.2-7.39,1.71-3.15,2.57-6.72,2.57-10.71s-.86-7.56-2.57-10.71c-1.72-3.15-4.12-5.63-7.2-7.44-3.09-1.81-6.56-2.71-10.43-2.71s-7.33.9-10.38,2.71c-3.06,1.81-5.44,4.29-7.16,7.44-1.72,3.15-2.57,6.72-2.57,10.71s.86,7.56,2.57,10.71,4.1,5.61,7.16,7.39c3.05,1.78,6.51,2.67,10.38,2.67s7.34-.89,10.43-2.67Z"/>
      <path class="cls-1" d="M1434.71,337.05c3.33,3.4,5,8.06,5,13.98v29.75h-3.93v-29c0-4.99-1.4-8.89-4.21-11.69-2.81-2.81-6.7-4.21-11.69-4.21-5.99.13-10.66,2.06-14.03,5.8s-5.05,8.82-5.05,15.25v23.85h-3.93v-69.4h3.93v33.39c1.62-4.12,4.13-7.25,7.53-9.4s7.56-3.29,12.49-3.41c5.92,0,10.55,1.7,13.89,5.1h0Z"/>
      <path class="cls-1" d="M1461.32,396.12c-2.31,1.93-4.9,2.9-7.76,2.9-3.68,0-6.77-.94-9.26-2.81l1.68-3.37c2.18,1.5,4.65,2.24,7.39,2.24,2.18,0,4.18-.75,5.99-2.24s3.3-3.68,4.49-6.55l2.25-5.52-20.11-48.73h4.12l17.96,44.15,17.49-44.15h4.12l-22.64,55.75c-1.5,3.62-3.4,6.39-5.71,8.33h-.01Z"/>
      <path class="cls-1" d="M1525.58,303.98h3.27v88.58h-3.27v-88.58h0Z"/>
      <path class="cls-1" d="M1565.61,315.4h4.4l24.79,60.71,24.88-60.71h4.3l-27.12,65.38h-4.12l-27.13-65.38h0Z"/>
      <path class="cls-1" d="M1638.71,315.63c.66.65.98,1.45.98,2.39,0,1-.33,1.82-.98,2.48-.65.65-1.42.98-2.29.98s-1.64-.33-2.29-.98c-.65-.65-.98-1.48-.98-2.48,0-.94.33-1.73.98-2.39.66-.65,1.42-.98,2.29-.98s1.64.33,2.29.98ZM1634.45,332.04h3.83v48.73h-3.83v-48.73Z"/>
      <path class="cls-1" d="M1701.05,311.37v69.4h-3.93v-12.72c-1.87,4.05-4.62,7.23-8.23,9.54-3.62,2.31-7.8,3.46-12.53,3.46s-8.64-1.06-12.25-3.18c-3.62-2.12-6.44-5.03-8.47-8.75-2.03-3.71-3.04-7.93-3.04-12.67s1.01-8.98,3.04-12.72,4.83-6.67,8.42-8.79c3.58-2.12,7.65-3.18,12.21-3.18,4.8,0,9.01,1.15,12.63,3.46s6.36,5.49,8.23,9.54v-33.39h3.93-.01ZM1687.26,374.7c3.09-1.81,5.5-4.3,7.25-7.48,1.75-3.18,2.62-6.77,2.62-10.76s-.87-7.58-2.62-10.76c-1.75-3.18-4.16-5.67-7.25-7.48s-6.56-2.71-10.43-2.71-7.34.9-10.43,2.71c-3.09,1.81-5.52,4.3-7.3,7.48-1.78,3.18-2.67,6.77-2.67,10.76s.87,7.58,2.62,10.76c1.74,3.18,4.16,5.68,7.25,7.48,3.09,1.81,6.59,2.71,10.52,2.71s7.34-.9,10.43-2.71h.01Z"/>
      <path class="cls-1" d="M1751.7,335.18c3.46,2.15,6.08,5.16,7.86,9.03s2.63,8.29,2.57,13.28h-42.56c.19,3.93,1.15,7.39,2.9,10.38s4.12,5.32,7.11,6.97,6.36,2.48,10.1,2.48c3.3,0,6.38-.58,9.21-1.73,2.84-1.15,5.25-2.82,7.25-5l2.24,2.53c-2.31,2.49-5.08,4.41-8.32,5.75s-6.77,2.01-10.57,2.01c-4.55,0-8.64-1.04-12.25-3.13-3.62-2.09-6.44-4.99-8.47-8.7-2.03-3.71-3.04-7.9-3.04-12.58s1.03-8.89,3.09-12.63c2.06-3.74,4.88-6.66,8.47-8.75,3.58-2.09,7.65-3.13,12.21-3.13s8.75,1.08,12.21,3.23h0ZM1758.58,354.03c-.37-5.61-2.28-10.1-5.71-13.47-3.43-3.37-7.89-5.05-13.38-5.05s-10.04,1.7-13.66,5.1-5.67,7.87-6.17,13.42h38.92Z"/>
      <path class="cls-1" d="M1807.26,335.08c3.65,2.09,6.5,4.99,8.56,8.7,2.06,3.71,3.09,7.9,3.09,12.58s-1.03,8.96-3.09,12.67c-2.06,3.71-4.91,6.61-8.56,8.7-3.65,2.09-7.78,3.13-12.39,3.13s-8.65-1.04-12.3-3.13-6.52-4.99-8.61-8.7c-2.09-3.71-3.13-7.93-3.13-12.67s1.04-8.87,3.13-12.58,4.96-6.61,8.61-8.7c3.65-2.09,7.75-3.13,12.3-3.13s8.75,1.04,12.39,3.13ZM1784.49,338.31c-3.06,1.75-5.46,4.19-7.2,7.34-1.75,3.15-2.62,6.72-2.62,10.71s.87,7.67,2.62,10.85c1.74,3.18,4.15,5.64,7.2,7.39,3.05,1.75,6.52,2.62,10.38,2.62s7.34-.87,10.43-2.62c3.09-1.75,5.49-4.21,7.2-7.39,1.71-3.18,2.57-6.8,2.57-10.85s-.86-7.56-2.57-10.71c-1.72-3.15-4.12-5.6-7.2-7.34-3.09-1.75-6.56-2.62-10.43-2.62s-7.33.87-10.38,2.62Z"/>
      <g id="Layer_1-2" data-name="Layer 1-2">
        <g>
          <path class="cls-1" d="M272.97,134.8c19.29,0,35.78,6.53,49.48,19.6,13.69,13.07,20.54,28.88,20.54,47.42,0,17.3-6.1,32.36-18.3,45.18-12.2,12.7-27.2,19.85-45,21.47-.75.12-93.98.31-279.69.56V.19c180.98-.12,271.97-.19,272.96-.19,19.29,0,35.78,6.66,49.48,19.98,13.69,13.32,20.54,29.25,20.54,47.8s-6.85,34.35-20.54,47.42c-13.69,13.07-30.19,19.6-49.48,19.6h0ZM201.47,61.24c0-7.34-2.68-13.63-8.03-18.86-5.23-5.1-11.64-7.72-19.23-7.84l-28.57-.37v73.38h38.09c11.58-4.36,17.49-12.51,17.74-24.46v-21.84h0ZM201.47,179.05c0-7.22-2.68-13.44-8.03-18.67-5.23-5.23-11.64-7.9-19.23-8.03l-28.57-.19v75.06h28.57c7.47-.12,13.82-2.74,19.04-7.84,5.35-5.1,8.09-11.2,8.21-18.3v-22.03h0Z"/>
          <path class="cls-1" d="M595.04,214.71h-67.21l-11.2,53.58h-145.63L427.01.19h268.86l56.01,268.11h-145.63l-11.2-53.58h0ZM583.84,161.13l-22.4-107.36-22.4,107.36h44.81,0Z"/>
          <path class="cls-1" d="M1099.91,53.77h-95.22v214.53h-145.63V53.77h-95.22V.19h336.07v53.58h0Z"/>
          <path class="cls-1" d="M1270.93,53.77v53.77h190.44v53.58h-190.44v53.58h190.44v53.58h-336.07V.19h336.07v53.58h-190.44Z"/>
          <path class="cls-1" d="M1823.4.56v53.58h-168.22c-7.72.13-14.25,2.8-19.6,8.03-5.48,5.23-8.21,11.51-8.21,18.86s2.74,13.63,8.21,18.86c5.35,5.23,11.88,7.84,19.6,7.84h137.79c8.34,0,15.5,2.86,21.47,8.59,5.97,5.73,8.96,12.57,8.96,20.54v102.69c0,8.09-2.99,14.94-8.96,20.54-5.97,5.73-13.13,8.59-21.47,8.59h-305.64v-53.58h170.09c7.22-.5,13.32-3.3,18.3-8.4,5.1-5.1,7.66-11.2,7.66-18.3s-2.74-13.63-8.21-18.86c-5.35-5.23-11.89-7.84-19.6-7.84l-137.79-.19c-8.34,0-15.5-2.86-21.47-8.59-5.97-5.72-8.96-12.57-8.96-20.54V29.69c0-8.09,2.99-14.94,8.96-20.54,5.97-5.72,13.13-8.59,21.47-8.59h305.64-.02Z"/>
        </g>
      </g>
    </g>
  </g>
</svg>